<?xml version="1.0" encoding="utf-8"?>
<svg viewBox="0 0 75 71.9204" width="75" height="71.9204" xmlns="http://www.w3.org/2000/svg">
  <path d="M75 28.6395V18.7001C75 8.37242 66.5392 0 56.1025 0H18.8975C8.46078 0 0 8.37242 0 18.7001V40.545C0 57.8743 14.1944 71.9204 31.7027 71.9204H43.2934C60.2941 71.9204 74.326 58.9748 74.9779 41.6662C75.0105 40.8057 74.3077 40.0904 73.4374 40.0881L64.0732 40.0616C63.27 40.0593 62.5234 40.6648 62.5327 41.4597C62.6526 51.5934 53.9051 59.6329 42.7967 59.6329H32.1994C21.2742 59.6329 12.4172 50.8684 12.4172 40.0573V20.6507C12.4172 16.1124 16.135 12.4334 20.7212 12.4334H54.2749C58.8634 12.4334 62.5828 16.1143 62.5828 20.6546V28.6395C62.5828 29.4824 63.2735 30.1659 64.1252 30.1659H73.4575C74.3093 30.1659 75 29.4824 75 28.6395Z" fill="#2F3A42" transform="matrix(0.9999999999999999, 0, 0, 0.9999999999999999, 0, 0)"/>
  <path d="M43.1317 52.0997H32.371C25.6638 52.0997 20.2266 46.7193 20.2266 40.0821V21.031C20.2266 20.3099 20.8175 19.7251 21.5463 19.7251H28.0102C28.739 19.7251 29.3299 20.3099 29.3299 21.031V40.0813C29.3299 41.7436 30.6916 43.091 32.3714 43.091H43.1317C44.8115 43.091 46.1731 41.7436 46.1731 40.0813V21.031C46.1731 20.3099 46.7641 19.7251 47.4928 19.7251H53.9568C54.6855 19.7251 55.2765 20.3099 55.2765 21.031V40.0813C55.2765 46.7189 49.8389 52.0993 43.1317 52.0993V52.0997Z" style="fill: rgb(13, 118, 187);" transform="matrix(0.9999999999999999, 0, 0, 0.9999999999999999, 0, 0)"/>
</svg>